# xmcd
#
# Track frame offsets: 
#        150
#        13426
#        22726
#        35002
#        46919
#        60059
#        69239
#        81465
#        91501
#        102262
#        115530
#        127376
#        139270
#        149458
#        162006
#        170996
#        181728
#        194443
#        205947
#        216407
#        227161
#
# Disc length: 3282 seconds
#
# Revision: 1
# Processed by: cddbd v1.5.2PL0 Copyright (c) Steve Scherf et al.
# Submitted via: ExactAudioCopy v1.1
#
DISCID=290cd015
DTITLE=Tammy Wynette - Your Good Girl's Gonna Go Bad - Take Me To Your
DTITLE=World - I Don't Wanna Play House
DYEAR=2018
DGENRE=Country
TTITLE0=Apartment #9 (stereo)
TTITLE1=Don't Come Home A-Drinkin' (With Lovin' On Your Mind) (stereo)
TTITLE2=Don't Touch Me (stereo)
TTITLE3=There Goes My Everything (stereo)
TTITLE4=Send Me No Roses (stereo)
TTITLE5=Your Good Girl's Gonna Go Bad (stereo)
TTITLE6=Walk Throiugh This World With Me (stereo)
TTITLE7=I'm Not Mine To Give (stereo)
TTITLE8=I Wound Easy (But I Heal Fast) (stereo)
TTITLE9=Almost Persuaded (stereo)
TTITLE10=I Don't Wanna Play House (stereo)
TTITLE11=Jackson Ain't A Very Big Town (stereo)
TTITLE12=Broadminded (stereo)
TTITLE13=Cry (stereo)
TTITLE14=The Phone Call (stereo)
TTITLE15=It's My Way (stereo)
TTITLE16=Take Me To Your World (stereo)
TTITLE17=(Oh) Is It Love (stereo)
TTITLE18=Fuzzy Wuzzy Ego (stereo)
TTITLE19=Good (stereo)
TTITLE20=Ode To Billie Joe (stereo)
EXTD=
EXTT0=
EXTT1=
EXTT2=
EXTT3=
EXTT4=
EXTT5=
EXTT6=
EXTT7=
EXTT8=
EXTT9=
EXTT10=
EXTT11=
EXTT12=
EXTT13=
EXTT14=
EXTT15=
EXTT16=
EXTT17=
EXTT18=
EXTT19=
EXTT20=
PLAYORDER=
